<?xml version="1.0" encoding="UTF-8"?>
<svg version="1.1" xmlns="http://www.w3.org/2000/svg" width="343" height="342">
<path d="M0 0 C6.76646087 5.23651009 12.75725069 11.41210154 18.8125 17.4375 C19.31692627 17.93806915 19.82135254 18.43863831 20.34106445 18.95437622 C21.78217507 20.39005124 23.21356122 21.83546739 24.64453125 23.28125 C25.48346924 24.12880859 26.32240723 24.97636719 27.18676758 25.84960938 C29 27.9375 29 27.9375 29 29.9375 C29.66 29.9375 30.32 29.9375 31 29.9375 C32.48046875 31.40625 32.48046875 31.40625 34.1875 33.4375 C34.80109375 34.159375 35.4146875 34.88125 36.046875 35.625 C36.69140625 36.388125 37.3359375 37.15125 38 37.9375 C39.30962265 39.44001281 40.62197391 40.94015323 41.9375 42.4375 C42.95833333 43.60416667 43.97916667 44.77083333 45 45.9375 C45.66 45.23625 46.32 44.535 47 43.8125 C47.99170614 42.84558651 48.99262938 41.88808257 50 40.9375 C50.81984375 40.14666016 50.81984375 40.14666016 51.65625 39.33984375 C58.23663888 33.66565249 65.67257552 32.66982303 74.1875 33.09765625 C85.41771802 34.57305479 91.88944272 39.22439811 99.25 47.6328125 C101 49.9375 101 49.9375 102 52.9375 C100.99839844 53.05867188 99.99679687 53.17984375 98.96484375 53.3046875 C97.6223597 53.47367151 96.27991377 53.64295858 94.9375 53.8125 C94.28072266 53.89113281 93.62394531 53.96976562 92.94726562 54.05078125 C88.4664808 54.62467487 84.31648825 55.60157776 80 56.9375 C78.37993121 64.09486881 80.51644749 69.65613459 82.6875 76.5 C82.8874054 77.13166077 83.08731079 77.76332153 83.29327393 78.41412354 C86.62021868 88.71955377 90.46714114 95.42350077 98.48144531 102.515625 C112.25050532 115.40806961 122.78303707 135.07457455 124 153.9375 C124.07734375 155.12666016 124.07734375 155.12666016 124.15625 156.33984375 C124.88908264 177.13397005 116.08013376 194.47112563 103 209.9375 C102.1646875 210.98164063 102.1646875 210.98164063 101.3125 212.046875 C98.26758687 215.78682264 94.87409784 218.8707566 91.203125 221.98828125 C88.69405869 224.20818212 86.35249193 226.55253502 84 228.9375 C80.47893677 232.50150302 76.86813992 235.84054168 73.0625 239.09375 C69.70964151 242.09100228 66.60106244 245.32909634 63.44140625 248.52734375 C60.72797273 251.20604532 57.89222977 253.68358118 54.99609375 256.16015625 C51.9347036 258.88605159 49.10034836 261.82891358 46.22265625 264.74609375 C43.5729856 267.35851068 40.78827197 269.77052621 37.96484375 272.19140625 C35.89179676 274.03365675 33.94564198 275.96151662 32 277.9375 C29.44009866 280.53732183 26.8322046 283.00018398 24.0625 285.375 C21.07198284 287.94415271 18.26883316 290.63067256 15.5 293.4375 C11.48759924 297.48401981 7.39008921 301.30432273 3 304.9375 C2.06671875 305.72125 1.1334375 306.505 0.171875 307.3125 C-17.73943447 321.9656704 -37.75435376 329.06598334 -61 326.9375 C-81.17711549 324.05505493 -97.54746513 310.96691553 -111.34741211 296.87133789 C-112.82206472 295.36523127 -114.30739082 293.87033197 -115.79492188 292.37695312 C-120.54595956 287.58683906 -125.15949336 282.71862745 -129.5534668 277.59790039 C-131.43570223 275.43738002 -133.44399383 273.43213286 -135.5 271.4375 C-138.9071879 268.07635518 -142.07458174 264.60048797 -145.1875 260.96875 C-147.2109288 258.70111428 -149.33653347 256.5717305 -151.5 254.4375 C-154.9071879 251.07635518 -158.07458174 247.60048797 -161.1875 243.96875 C-163.2109288 241.70111428 -165.33653347 239.5717305 -167.5 237.4375 C-170.9071879 234.07635518 -174.07458174 230.60048797 -177.1875 226.96875 C-179.2109288 224.70111428 -181.33653347 222.5717305 -183.5 220.4375 C-187.54802728 216.43050002 -191.32535808 212.28675221 -195 207.9375 C-195.71027344 207.12796875 -196.42054688 206.3184375 -197.15234375 205.484375 C-210.13228809 190.3078247 -219.90431567 170.90552852 -219.2421875 150.453125 C-216.97428506 126.89620286 -205.60301521 108.32521863 -188.26953125 92.50390625 C-178.51250222 83.47359123 -172.50945669 75.91266201 -171.8046875 62.11328125 C-171.67823061 58.94106701 -171.67823061 58.94106701 -173.5625 57.125 C-180.42400494 53.78221554 -186.46816806 53.69234091 -194 53.9375 C-192.71948115 47.38939227 -188.19277578 42.50596793 -182.9375 38.625 C-175.07001677 33.78550612 -165.75626744 32.0720597 -156.63671875 33.296875 C-149.53473891 35.02239306 -143.74015228 38.40732234 -139 43.9375 C-135.74792908 42.52011511 -133.68638933 40.81223588 -131.25 38.25 C-128.60990711 35.53670676 -125.94085848 32.95895694 -123.0625 30.5 C-120.07198284 27.93084729 -117.26883316 25.24432744 -114.5 22.4375 C-111.12242961 19.01944503 -107.65869795 15.79024913 -104.00390625 12.671875 C-102.65299559 11.50266577 -101.32745285 10.30357437 -100.02734375 9.078125 C-71.12397361 -17.93437046 -33.00127699 -23.70091711 0 0 Z M-86 32.9375 C-87.85401659 34.62516488 -89.70819185 36.31265547 -91.5625 38 C-97.94563883 43.84730127 -104.24181206 49.78687184 -110.53515625 55.73046875 C-113.55242858 58.57882171 -116.58187849 61.41335729 -119.62109375 64.23828125 C-120.37559814 64.94186768 -121.13010254 65.6454541 -121.9074707 66.37036133 C-123.33674046 67.70269943 -124.76867335 69.03218917 -126.20385742 70.3581543 C-136.26965343 79.3329828 -136.26965343 79.3329828 -140.23828125 91.65625 C-140.35016175 95.84882459 -140.42140054 99.03723522 -138.625 102.875 C-133.70563224 106.74021753 -128.25679132 108.9375 -122 108.9375 C-122.226875 107.7 -122.45375 106.4625 -122.6875 105.1875 C-123.19764852 102.4048717 -123.15877453 101.25783458 -121.88671875 98.69140625 C-119.27097926 96.25979749 -117.64409617 96.49775089 -114.125 96.625 C-112.58199219 96.66173828 -112.58199219 96.66173828 -111.0078125 96.69921875 C-108 96.9375 -108 96.9375 -105.6171875 97.45703125 C-102.13206995 98.17825277 -102.13206995 98.17825277 -95 97.9375 C-94.67 90.6775 -94.34 83.4175 -94 75.9375 C-84.98461538 75.9375 -84.98461538 75.9375 -81.875 79 C-81.21371094 79.63679688 -80.55242187 80.27359375 -79.87109375 80.9296875 C-78.14929186 82.77729955 -76.53370381 84.66890939 -74.9375 86.625 C-71.02297063 91.35860209 -66.20772443 94.28934054 -60 94.9375 C-57.04230534 94.19884681 -57.04230534 94.19884681 -54.0625 93 C-49.05554376 91.09412634 -44.82795259 89.83931175 -39.65625 91.84765625 C-38.9446875 92.22792969 -38.233125 92.60820313 -37.5 93 C-34.6750852 94.31577835 -33.09620369 94.93357332 -29.9375 95.0625 C-21.91287155 91.98923804 -16.61734613 85.55739703 -11.1015625 79.23046875 C-8.32479232 76.20079571 -7.65824058 75.97276289 -3.5 75.75 C0 75.9375 0 75.9375 2 77.9375 C2.21118164 79.89282227 2.21118164 79.89282227 2.16015625 82.25390625 C2.1437207 83.52331055 2.1437207 83.52331055 2.12695312 84.81835938 C2.10568359 85.70330078 2.08441406 86.58824219 2.0625 87.5 C2.02821211 89.25122249 1.99803848 91.00253204 1.97265625 92.75390625 C1.95468994 93.53193604 1.93672363 94.30996582 1.91821289 95.11157227 C1.79514361 96.95756276 1.79514361 96.95756276 3 97.9375 C4.94074038 97.84422411 6.87842696 97.6858362 8.8125 97.5 C13.44271879 97.11159313 18.04079136 96.81750666 22.6875 96.75 C23.66074219 96.73582031 24.63398438 96.72164063 25.63671875 96.70703125 C28 96.9375 28 96.9375 30 98.9375 C30.1953125 101.3203125 30.1953125 101.3203125 30.125 104.0625 C30.10695312 104.97257812 30.08890625 105.88265625 30.0703125 106.8203125 C30.04710937 107.51898438 30.02390625 108.21765625 30 108.9375 C39.44118101 107.49797559 39.44118101 107.49797559 46.8125 101.8125 C48.45578124 97.83402963 48.84800367 94.17084116 48 89.9375 C45.20309179 84.01668187 41.38720457 79.99142024 36.6875 75.5 C35.33150948 74.17634501 33.9773156 72.85084677 32.625 71.5234375 C31.98820313 70.89920898 31.35140625 70.27498047 30.6953125 69.63183594 C28.20794738 67.14590363 25.93404574 64.50972387 23.66796875 61.82421875 C20.81623615 58.59848843 17.70854632 55.62740036 14.625 52.625 C12.58306826 50.53445083 10.66523484 48.42728634 8.7578125 46.21875 C-1.58388908 34.30707643 -12.55967437 21.80022901 -27 14.9375 C-27.73605469 14.56625 -28.47210938 14.195 -29.23046875 13.8125 C-50.82284015 4.73803247 -70.89733758 18.8764005 -86 32.9375 Z M-178 119.9375 C-187.3393703 131.56362687 -193.57670463 142.68936914 -192 157.9375 C-189.32193971 170.9589668 -183.0174199 181.34092734 -173.91796875 190.87890625 C-172 192.9375 -172 192.9375 -170 195.9375 C-169.34 195.9375 -168.68 195.9375 -168 195.9375 C-167.76667969 196.49953125 -167.53335938 197.0615625 -167.29296875 197.640625 C-165.68062924 200.50484142 -163.6806438 202.41002021 -161.3125 204.6875 C-158.22909896 207.70463884 -155.23858474 210.71891718 -152.4375 214 C-149.21049931 217.77369257 -145.72464266 221.22943457 -142.19140625 224.71484375 C-139.57898932 227.3645144 -137.16697379 230.14922803 -134.74609375 232.97265625 C-132.90384325 235.04570324 -130.97598338 236.99185802 -129 238.9375 C-126.40017817 241.49740134 -123.93731602 244.1052954 -121.5625 246.875 C-118.99334729 249.86551716 -116.30682744 252.66866684 -113.5 255.4375 C-110.73439592 258.16579407 -108.08712969 260.92266834 -105.5625 263.875 C-101.31145511 268.82959778 -96.64676814 273.35796806 -92 277.9375 C-91.15824219 278.78183594 -90.31648438 279.62617188 -89.44921875 280.49609375 C-78.3098042 291.59997587 -66.46206497 300.51738128 -50.12109375 301.02734375 C-28.82474277 299.84589611 -12.6065255 283.85440593 1.51171875 269.4296875 C4.24204002 266.69508001 7.10136253 264.18572543 10.0390625 261.6796875 C13.09229171 258.96705756 15.9140315 256.03149547 18.78125 253.125 C21.40771122 250.53553119 24.16976458 248.14913036 26.96875 245.75 C29.23638572 243.7265712 31.3657695 241.60096653 33.5 239.4375 C36.86114482 236.0303121 40.33701203 232.86291826 43.96875 229.75 C46.23638572 227.7265712 48.3657695 225.60096653 50.5 223.4375 C53.86114482 220.0303121 57.33701203 216.86291826 60.96875 213.75 C64.04125509 211.00838007 66.89139524 208.05654395 69.77734375 205.12109375 C71.80116635 203.13283921 73.88266496 201.31297435 76.0625 199.5 C86.79675199 190.23823983 95.85314102 177.16539096 97.31640625 162.83984375 C97.78995616 150.02344454 93.18082233 139.39378515 86 128.9375 C84.70368277 127.56815081 83.38090549 126.22149984 82 124.9375 C81.27296875 125.82501953 81.27296875 125.82501953 80.53125 126.73046875 C68.77927198 140.58424284 54.42216051 143.11879641 37 144.9375 C34.43551664 145.21118004 31.8727668 145.50184001 29.3125 145.8125 C28.21550781 145.93367188 27.11851562 146.05484375 25.98828125 146.1796875 C22.36675456 147.09808773 20.59512342 148.25602396 18 150.9375 C16.65227097 154.05883744 16.65227097 154.05883744 16 156.9375 C29.69813549 158.04417163 42.19580761 154.00633427 55.00854492 149.56640625 C57.6367492 148.73641309 60.2700951 148.28748781 63 147.9375 C61.68546911 159.85893532 56.42320068 169.62265052 47.125 177.31640625 C36.85420289 184.49312573 26.49620565 189.04755468 14 190.9375 C13.67 191.9275 13.34 192.9175 13 193.9375 C18.11372979 194.12130544 22.38366613 193.54071732 27.3125 192.1875 C27.96114014 192.00993164 28.60978027 191.83236328 29.27807617 191.64941406 C34.04596039 190.3058825 38.60636084 188.64829762 43.14453125 186.671875 C45 185.9375 45 185.9375 47 185.9375 C47.66961606 192.94132203 46.53590209 196.94912392 42.375 202.5625 C41.91351563 203.21202637 41.45203125 203.86155273 40.9765625 204.53076172 C39.67166378 206.34928104 38.33878899 208.14388662 37 209.9375 C36.45601562 210.7109375 35.91203125 211.484375 35.3515625 212.28125 C29.13227686 220.47776518 18.41893825 223.04061006 9 225.9375 C10.00610167 228.55430904 11.06975545 231.0770109 12.32421875 233.5859375 C15.1433344 239.22416881 16.77984187 242.7765089 15 248.9375 C11.0453249 250.12390253 8.68361095 250.06408482 5.0625 248.25 C3.69891365 247.49595514 2.34471177 246.72471131 1 245.9375 C0.31808594 245.55464844 -0.36382812 245.17179687 -1.06640625 244.77734375 C-2.71943041 243.84563922 -4.3609668 242.8936027 -6 241.9375 C-6.37511719 242.75734375 -6.75023437 243.5771875 -7.13671875 244.421875 C-7.64847656 245.49953125 -8.16023437 246.5771875 -8.6875 247.6875 C-9.18636719 248.75484375 -9.68523437 249.8221875 -10.19921875 250.921875 C-13.96121324 257.22178768 -19.17279871 259.1903148 -26 260.9375 C-29.08973481 261.33023422 -32.1300661 261.38260024 -35.2421875 261.37109375 C-36.09120636 261.3763356 -36.94022522 261.38157745 -37.81497192 261.38697815 C-39.59815384 261.39335638 -41.38137806 261.39211631 -43.16455078 261.38354492 C-45.8617813 261.37504167 -48.55688441 261.40384323 -51.25390625 261.43554688 C-71.59506179 261.5198886 -71.59506179 261.5198886 -78.94433594 255.2890625 C-82.71255576 251.40966481 -84.39105272 247.03249973 -86 241.9375 C-89.66818253 243.27792321 -92.6917678 244.96630607 -95.9375 247.125 C-99.30744692 249.19726587 -100.52574182 249.94582032 -104.5625 249.875 C-107 248.9375 -107 248.9375 -108 247.9375 C-109.31314248 239.56621672 -104.90553884 233.03123381 -101 225.9375 C-101.97839844 225.64617187 -102.95679687 225.35484375 -103.96484375 225.0546875 C-119.68752045 220.2106095 -128.84346994 212.76303249 -137.62109375 198.703125 C-139.62777267 194.67839787 -139.92674494 191.40605885 -140 186.9375 C-136.15800652 185.65683551 -135.28428811 186.49374863 -131.6875 188.1875 C-123.17965122 191.89870013 -114.32375897 194.20510033 -105 193.9375 C-105.33 192.9475 -105.66 191.9575 -106 190.9375 C-108.60179422 190.22351926 -111.10532123 189.67652035 -113.75 189.1875 C-128.33044591 186.09514181 -140.70015617 178.72974353 -149.4375 166.4375 C-153.09830628 160.50554195 -155.08196719 154.90614946 -155 147.9375 C-154.43716309 148.10354736 -153.87432617 148.26959473 -153.29443359 148.44067383 C-131.54431564 155.24731912 -131.54431564 155.24731912 -109 156.9375 C-109.25054108 153.26289742 -109.48595698 151.45013468 -112.13867188 148.8046875 C-115.45408262 146.64118397 -117.67435447 146.2262262 -121.59375 145.8125 C-122.8725 145.66296875 -124.15125 145.5134375 -125.46875 145.359375 C-126.8123358 145.21718971 -128.1560882 145.07657018 -129.5 144.9375 C-146.4908081 143.11705627 -161.23645051 140.49926917 -172.5625 126.83984375 C-174.22691597 124.63720631 -175.64709786 122.34265937 -177 119.9375 C-177.33 119.9375 -177.66 119.9375 -178 119.9375 Z M-87 151.9375 C-86.51973152 154.88568931 -86.51973152 154.88568931 -85 157.9375 C-82.54924181 159.35349362 -80.66825071 160.11341589 -78 160.9375 C-76.92878906 161.28941406 -75.85757813 161.64132813 -74.75390625 162.00390625 C-68.4961865 164.15533667 -68.4961865 164.15533667 -62 164.9375 C-64.47254369 159.09674629 -69.76334491 156.36515218 -74.9375 153.0625 C-79.02671337 151.56033999 -82.69293971 151.67907638 -87 151.9375 Z M-30 161.9375 C-30 162.9275 -30 163.9175 -30 164.9375 C-17.0761518 163.39445443 -17.0761518 163.39445443 -6.57421875 157.12109375 C-5.61079036 155.01746911 -5.61079036 155.01746911 -5 151.9375 C-14.88734906 151.11355424 -22.9505909 154.90683933 -30 161.9375 Z " fill="#000000" transform="translate(219,15.0625)"/>
</svg>
